<?xml version="1.0" encoding="UTF-8"?>
<svg width="800" height="800" viewBox="0 0 800 800" xmlns="http://www.w3.org/2000/svg">
  <defs>
    <pattern id="circuit" x="0" y="0" width="100" height="100" patternUnits="userSpaceOnUse">
      <!-- Circuit Lines -->
      <path d="M10 50 L40 50 M60 50 L90 50" stroke="white" stroke-width="2" opacity="0.2"/>
      <path d="M50 10 L50 40 M50 60 L50 90" stroke="white" stroke-width="2" opacity="0.2"/>
      <!-- Connection Dots -->
      <circle cx="50" cy="50" r="4" fill="white" opacity="0.3"/>
      <circle cx="10" cy="50" r="2" fill="white" opacity="0.2"/>
      <circle cx="90" cy="50" r="2" fill="white" opacity="0.2"/>
      <circle cx="50" cy="10" r="2" fill="white" opacity="0.2"/>
      <circle cx="50" cy="90" r="2" fill="white" opacity="0.2"/>
      <!-- Corner Elements -->
      <path d="M10 10 L30 10 L30 30" stroke="white" stroke-width="2" opacity="0.15"/>
      <path d="M70 10 L90 10 L90 30" stroke="white" stroke-width="2" opacity="0.15"/>
      <path d="M10 70 L10 90 L30 90" stroke="white" stroke-width="2" opacity="0.15"/>
      <path d="M70 90 L90 90 L90 70" stroke="white" stroke-width="2" opacity="0.15"/>
    </pattern>
  </defs>
  <rect width="100%" height="100%" fill="url(#circuit)"/>
</svg>
